<?xml version="1.0" encoding="UTF-8" standalone="no"?>
<!-- Created with Inkscape (http://www.inkscape.org/) -->

<svg
   xmlns:dc="http://purl.org/dc/elements/1.1/"
   xmlns:cc="http://creativecommons.org/ns#"
   xmlns:rdf="http://www.w3.org/1999/02/22-rdf-syntax-ns#"
   xmlns:svg="http://www.w3.org/2000/svg"
   xmlns="http://www.w3.org/2000/svg"
   xmlns:sodipodi="http://sodipodi.sourceforge.net/DTD/sodipodi-0.dtd"
   xmlns:inkscape="http://www.inkscape.org/namespaces/inkscape"
   id="svg2985"
   version="1.1"
   inkscape:version="0.48.2 r9819"
   width="340"
   height="320"
   sodipodi:docname="logo-sunny.svg">
  <metadata
     id="metadata2991">
    <rdf:RDF>
      <cc:Work
         rdf:about="">
        <dc:format>image/svg+xml</dc:format>
        <dc:type
           rdf:resource="http://purl.org/dc/dcmitype/StillImage" />
        <dc:title></dc:title>
      </cc:Work>
    </rdf:RDF>
  </metadata>
  <defs
     id="defs2989">
    <inkscape:path-effect
       effect="skeletal"
       id="path-effect3158"
       is_visible="true"
       pattern="m 316.62382,3.7301481 c 0,1.7839615 -1.44618,3.2301479 -3.23014,3.2301479 C 311.60971,6.960296 0.5,5.5141096 0.5,3.7301481 0.5,1.9461866 311.60971,0.5 313.39368,0.5 c 1.78396,0 3.23014,1.4461866 3.23014,3.2301481 z"
       copytype="single_stretched"
       prop_scale="1"
       scale_y_rel="false"
       spacing="0"
       normal_offset="0"
       tang_offset="0"
       prop_units="false"
       vertical_pattern="false"
       fuse_tolerance="0" />
    <inkscape:path-effect
       effect="skeletal"
       id="path-effect3150"
       is_visible="true"
       pattern="m 316.62382,3.7301481 c 0,1.7839615 -1.44618,3.2301479 -3.23014,3.2301479 C 311.60971,6.960296 0.5,5.5141096 0.5,3.7301481 0.5,1.9461866 311.60971,0.5 313.39368,0.5 c 1.78396,0 3.23014,1.4461866 3.23014,3.2301481 z"
       copytype="single_stretched"
       prop_scale="1"
       scale_y_rel="false"
       spacing="0"
       normal_offset="0"
       tang_offset="0"
       prop_units="false"
       vertical_pattern="false"
       fuse_tolerance="0" />
    <inkscape:path-effect
       effect="skeletal"
       id="path-effect3142"
       is_visible="true"
       pattern="m 316.62382,3.7301481 c 0,1.7839615 -1.44618,3.2301479 -3.23014,3.2301479 C 311.60971,6.960296 0.5,5.5141096 0.5,3.7301481 0.5,1.9461866 311.60971,0.5 313.39368,0.5 c 1.78396,0 3.23014,1.4461866 3.23014,3.2301481 z"
       copytype="single_stretched"
       prop_scale="1"
       scale_y_rel="false"
       spacing="0"
       normal_offset="0"
       tang_offset="0"
       prop_units="false"
       vertical_pattern="false"
       fuse_tolerance="0" />
    <inkscape:path-effect
       effect="skeletal"
       id="path-effect3134"
       is_visible="true"
       pattern="m 316.62382,3.7301481 c 0,1.7839615 -1.44618,3.2301479 -3.23014,3.2301479 C 311.60971,6.960296 0.5,5.5141096 0.5,3.7301481 0.5,1.9461866 311.60971,0.5 313.39368,0.5 c 1.78396,0 3.23014,1.4461866 3.23014,3.2301481 z"
       copytype="single_stretched"
       prop_scale="1"
       scale_y_rel="false"
       spacing="0"
       normal_offset="0"
       tang_offset="0"
       prop_units="false"
       vertical_pattern="false"
       fuse_tolerance="1" />
    <inkscape:path-effect
       effect="skeletal"
       id="path-effect3126"
       is_visible="true"
       pattern="m 316.62382,3.7301481 c 0,1.7839615 -1.44618,3.2301479 -3.23014,3.2301479 C 311.60971,6.960296 0.5,5.5141096 0.5,3.7301481 0.5,1.9461866 311.60971,0.5 313.39368,0.5 c 1.78396,0 3.23014,1.4461866 3.23014,3.2301481 z"
       copytype="single_stretched"
       prop_scale="1"
       scale_y_rel="false"
       spacing="0"
       normal_offset="0"
       tang_offset="0"
       prop_units="false"
       vertical_pattern="false"
       fuse_tolerance="0" />
    <inkscape:path-effect
       effect="skeletal"
       id="path-effect3118"
       is_visible="true"
       pattern="m 316.62382,3.7301481 c 0,1.7839615 -1.44618,3.2301479 -3.23014,3.2301479 C 311.60971,6.960296 0.5,5.5141096 0.5,3.7301481 0.5,1.9461866 311.60971,0.5 313.39368,0.5 c 1.78396,0 3.23014,1.4461866 3.23014,3.2301481 z"
       copytype="single_stretched"
       prop_scale="1"
       scale_y_rel="false"
       spacing="0"
       normal_offset="0"
       tang_offset="0"
       prop_units="false"
       vertical_pattern="false"
       fuse_tolerance="0" />
  </defs>
  <sodipodi:namedview
     pagecolor="#ffffff"
     bordercolor="#666666"
     borderopacity="1"
     objecttolerance="10"
     gridtolerance="10"
     guidetolerance="10"
     inkscape:pageopacity="0"
     inkscape:pageshadow="2"
     inkscape:window-width="1280"
     inkscape:window-height="962"
     id="namedview2987"
     showgrid="false"
     inkscape:zoom="2.321875"
     inkscape:cx="102.81292"
     inkscape:cy="160"
     inkscape:window-x="-8"
     inkscape:window-y="-8"
     inkscape:window-maximized="1"
     inkscape:current-layer="layer1" />
  <g
     inkscape:groupmode="layer"
     id="layer1"
     inkscape:label="Layer">
    <g
       id="g4286">
      <path
         inkscape:path-effect="#path-effect3118"
         transform="matrix(0.37369147,-1.029469,1.1648113,0.33027135,-130.15176,295.46927)"
         d="m 274.07427,226.0743 c -0.88975,-0.063 -1.64217,-0.8184 -2.16643,-1.96367 -0.52426,-1.14528 -0.82437,-2.68085 -0.8053,-4.36818 0.002,-0.154 0.0386,-1.527 -0.0231,-4.00688 -0.0617,-2.47989 -0.22762,-6.07104 -0.8037,-10.62279 -0.57607,-4.55175 -1.56777,-10.06964 -3.369,-16.28757 -1.80122,-6.21792 -4.41676,-13.1405 -8.25107,-20.30823 -3.96083,-7.40122 -9.26942,-15.07228 -16.14606,-22.2338 -6.87664,-7.16152 -15.32472,-13.81245 -25.29619,-18.88096 -1e-5,-1e-5 -2e-5,-1e-5 -3e-5,-2e-5 -9.17969,-4.68077 -19.68465,-7.8992 -30.85241,-9.11683 -11.16777,-1.21763 -22.99332,-0.43246 -34.46544,2.80948 -10.37017,2.93159 -20.46748,7.86792 -29.1985,14.83206 -8.72143,6.94844 -16.0489,15.96983 -21.08473,26.24525 -3.883965,7.91274 -6.2507,16.64379 -7.002697,25.55294 -0.751997,8.90915 0.110991,17.99334 2.641348,26.58485 2.480359,8.4177 6.563029,16.37605 12.088949,23.11053 5.73707,7.00125 13.06749,12.65938 21.18682,16.44376 6.32149,2.95095 13.18885,4.63363 20.07764,5.07192 6.88879,0.4383 13.79762,-0.3678 20.25208,-2.36923 6.5384,-2.02882 12.61884,-5.29223 17.68041,-9.60123 5.38115,-4.57369 9.59588,-10.35292 12.32449,-16.62526 2.0972,-4.81366 3.21029,-9.9751 3.40866,-15.08424 0.19837,-5.10915 -0.51791,-10.16553 -2.06619,-14.84083 -1.60789,-4.85055 -4.12463,-9.29401 -7.37317,-12.92481 -3.51474,-3.93624 -7.90596,-6.90632 -12.57063,-8.74069 -3.46726,-1.36547 -7.13164,-2.01588 -10.70862,-2.03566 -3.57698,-0.0198 -7.06666,0.591 -10.25664,1.74311 -3.55643,1.28591 -6.71962,3.36281 -9.2164,5.87506 -2.49679,2.51225 -4.32795,5.46017 -5.35764,8.57116 -0.77401,2.3131 -1.06903,4.71239 -0.96912,7.01381 0.0999,2.30143 0.59467,4.5054 1.40235,6.49011 1e-5,1e-5 1e-5,2e-5 1e-5,2e-5 0.94409,2.31464 2.41994,4.30634 4.12914,5.80363 1.70921,1.49729 3.6528,2.50199 5.62727,2.97609 1.3727,0.33602 2.75749,0.38547 4.05217,0.22488 1.29468,-0.16059 2.49987,-0.53126 3.56073,-1.04459 1e-5,0 1e-5,0 2e-5,-1e-5 1.33993,-0.65157 2.41706,-1.62941 3.14668,-2.67752 0.72961,-1.0481 1.11555,-2.1691 1.2066,-3.22509 0.12719,-1.35 -0.32433,-2.5443 -0.85523,-3.38928 -0.30219,-0.47553 -0.69461,-0.82477 -1.06258,-1.05418 -0.36797,-0.22941 -0.71473,-0.34261 -0.99857,-0.39524 -0.56768,-0.10527 -0.88718,-0.0101 -0.89811,-0.0494 -0.005,-0.0197 0.0656,-0.0646 0.21886,-0.11056 0.15325,-0.046 0.39018,-0.0918 0.70629,-0.0755 0.31611,0.0163 0.71399,0.0971 1.14795,0.31299 0.43396,0.21593 0.9075,0.57037 1.28774,1.09894 0.63858,0.8757 1.21175,2.15449 1.14273,3.70876 -0.0599,1.17818 -0.43392,2.44551 -1.19383,3.6439 -0.75991,1.19839 -1.90945,2.33054 -3.39655,3.10696 -1e-5,0 -1e-5,1e-5 -2e-5,1e-5 -1.13925,0.59799 -2.44214,1.04555 -3.85728,1.26324 -1.41513,0.21769 -2.94314,0.20556 -4.4856,-0.12803 -2.18443,-0.48121 -4.34704,-1.52602 -6.26126,-3.11603 -1.91421,-1.59001 -3.58107,-3.72704 -4.67214,-6.2636 0,-10e-6 0,-10e-6 -10e-6,-2e-5 -0.92029,-2.13429 -1.50766,-4.51044 -1.66505,-7.00841 -0.1574,-2.49797 0.11522,-5.11817 0.91938,-7.67828 1.08158,-3.40836 3.00952,-6.64789 5.66592,-9.42135 2.65641,-2.77345 6.04209,-5.08111 9.90412,-6.53855 3.42066,-1.29249 7.16579,-2.00896 11.02354,-2.04288 3.85775,-0.0339 7.82821,0.61481 11.62723,2.04945 5.05267,1.91025 9.82553,5.04506 13.69535,9.26734 3.56038,3.89177 6.33476,8.63572 8.11811,13.83041 1.71719,4.99734 2.55041,10.40157 2.39841,15.8837 -0.15201,5.48213 -1.28932,11.04168 -3.5003,16.27765 -2.85764,6.75861 -7.30838,13.00057 -13.06034,17.9923 -5.4065,4.68503 -11.87666,8.25005 -18.85259,10.48001 -6.87884,2.2003 -14.23729,3.13277 -21.59872,2.73009 -7.36142,-0.40268 -14.72442,-2.14054 -21.56211,-5.25427 -8.71159,-3.97249 -16.58952,-9.94451 -22.80908,-17.40569 -5.97111,-7.17201 -10.400015,-15.61653 -13.106375,-24.56918 -2.76198,-9.13255 -3.758137,-18.77914 -3.026788,-28.26726 0.731348,-9.48813 3.189999,-18.81473 7.287556,-27.33466 5.290687,-10.98521 13.018387,-20.64068 22.288337,-28.13245 9.27412,-7.48711 19.96159,-12.81162 30.9605,-15.99016 12.16567,-3.51687 24.69005,-4.43422 36.54941,-3.21268 11.85936,1.22154 23.04867,4.57987 32.89339,9.51528 1e-5,1e-5 2e-5,1e-5 3e-5,2e-5 10.6451,5.35245 19.65678,12.35342 26.99684,19.90512 7.34005,7.5517 13.01211,15.65287 17.25564,23.49198 4.10376,7.57794 6.91328,14.89363 8.85541,21.46967 1.94212,6.57605 3.02195,12.41697 3.65594,17.23976 0.63399,4.82279 0.82795,8.63288 0.90553,11.26533 0.0776,2.63244 0.0449,4.09151 0.043,4.25512 -0.0202,1.79251 -0.44661,3.40584 -1.0921,4.53816 -0.64549,1.13231 -1.50509,1.78386 -2.39485,1.72088 z"
         sodipodi:t0="0.10107388"
         sodipodi:argument="-15.084676"
         sodipodi:radius="111.98235"
         sodipodi:revolution="2.4309225"
         sodipodi:expansion="1.8200001"
         sodipodi:cy="205.00673"
         sodipodi:cx="164.09152"
         id="path3092"
         style="fill:none;stroke:#000000;stroke-width:1px;stroke-linecap:butt;stroke-linejoin:miter;stroke-opacity:1"
         sodipodi:type="spiral" />
      <path
         inkscape:connector-curvature="0"
         id="path3176"
         d="M 42.530691,114.86545 C 22.7845,102.63372 11.233858,95.182472 11.541693,94.874637 c 0.302238,-0.302238 16.885553,8.108133 34.894377,17.696993 7.106326,3.78378 12.995131,6.94599 13.086234,7.02712 0.256414,0.22836 -0.75669,2.43997 -1.58027,3.44974 -0.734889,0.90103 -0.816526,0.85768 -15.411343,-8.18304 l 0,0 z"
         style="fill:none;fill-opacity:1;stroke:none;stroke-width:0.43068641000000002" />
      <path
         inkscape:connector-curvature="0"
         id="path3178"
         d=""
         style="fill:none;stroke:none" />
      <path
         inkscape:connector-curvature="0"
         id="path3180"
         d="m 46.580184,289.57201 c 1.262312,-1.7614 28.887867,-29.77367 29.893289,-30.31176 0.71375,-0.38198 1.061538,-0.26221 1.994952,0.68707 l 1.130498,1.1497 -2.368775,2.19987 c -4.742094,4.40397 -30.959546,27.4595 -31.22539,27.4595 -0.150354,0 0.108587,-0.53297 0.575426,-1.18438 z"
         style="fill:none;stroke:none" />
      <path
         inkscape:connector-curvature="0"
         id="path3182"
         d="M 42.530691,114.86545 C 22.7845,102.63372 11.233858,95.182472 11.541693,94.874637 c 0.302238,-0.302238 16.885553,8.108133 34.894377,17.696993 7.106326,3.78378 12.995131,6.94599 13.086234,7.02712 0.256414,0.22836 -0.75669,2.43997 -1.58027,3.44974 -0.734889,0.90103 -0.816526,0.85768 -15.411343,-8.18304 l 0,0 z"
         style="fill:none;stroke:none" />
      <path
         inkscape:connector-curvature="0"
         id="path3184"
         d="m 157.39436,48.818304 c 0.0518,-14.885277 0.53708,-38.050368 0.7255,-34.629933 0.0436,0.79203 0.46487,6.993914 0.93608,13.781965 0.8986,12.944827 2.15725,33.898675 2.15776,35.921992 2.8e-4,1.116637 -0.11057,1.184388 -1.93779,1.184388 l -1.93809,0 0.0565,-16.258412 z"
         style="fill:none;stroke:none" />
      <path
         inkscape:connector-curvature="0"
         id="path3186"
         d="m 157.39436,48.818304 c 0.0518,-14.885277 0.53708,-38.050368 0.7255,-34.629933 0.0436,0.79203 0.46487,6.993914 0.93608,13.781965 0.8986,12.944827 2.15725,33.898675 2.15776,35.921992 2.8e-4,1.116637 -0.11057,1.184388 -1.93779,1.184388 l -1.93809,0 0.0565,-16.258412 z"
         style="fill:none;stroke:none" />
      <path
         inkscape:connector-curvature="0"
         id="path3188"
         d="m 157.39436,48.818304 c 0.0518,-14.885277 0.53708,-38.050368 0.7255,-34.629933 0.0436,0.79203 0.46487,6.993914 0.93608,13.781965 0.8986,12.944827 2.15725,33.898675 2.15776,35.921992 2.8e-4,1.116637 -0.11057,1.184388 -1.93779,1.184388 l -1.93809,0 0.0565,-16.258412 z"
         style="fill:none;stroke:none" />
      <path
         inkscape:connector-curvature="0"
         id="path3190"
         d="m 157.39436,48.818304 c 0.0518,-14.885277 0.53708,-38.050368 0.7255,-34.629933 0.0436,0.79203 0.46487,6.993914 0.93608,13.781965 0.8986,12.944827 2.15725,33.898675 2.15776,35.921992 2.8e-4,1.116637 -0.11057,1.184388 -1.93779,1.184388 l -1.93809,0 0.0565,-16.258412 z"
         style="fill:none;stroke:none" />
      <path
         inkscape:connector-curvature="0"
         id="path3192"
         d="m 157.39436,48.818304 c 0.0518,-14.885277 0.53708,-38.050368 0.7255,-34.629933 0.0436,0.79203 0.46487,6.993914 0.93608,13.781965 0.8986,12.944827 2.15725,33.898675 2.15776,35.921992 2.8e-4,1.116637 -0.11057,1.184388 -1.93779,1.184388 l -1.93809,0 0.0565,-16.258412 z"
         style="fill:none;stroke:none" />
      <path
         inkscape:connector-curvature="0"
         id="path3194"
         d=""
         style="fill:none;stroke:none" />
      <path
         inkscape:connector-curvature="0"
         id="path3196"
         d="m 254.52049,275.83229 -17.16458,-15.76383 1.36479,-1.34513 1.36478,-1.34513 5.24797,5.3996 c 2.88639,2.96978 9.3052,9.75309 14.26404,15.07402 4.95883,5.32093 9.89367,10.59502 10.96631,11.72019 5.05548,5.30306 -0.33702,0.68484 -16.04331,-13.73972 z"
         style="fill:none;stroke:none" />
      <path
         inkscape:connector-curvature="0"
         id="path3198"
         d="m 46.580184,289.57201 c 1.262312,-1.7614 28.887867,-29.77367 29.893289,-30.31176 0.71375,-0.38198 1.061538,-0.26221 1.994952,0.68707 l 1.130498,1.1497 -2.368775,2.19987 c -4.742094,4.40397 -30.959546,27.4595 -31.22539,27.4595 -0.150354,0 0.108587,-0.53297 0.575426,-1.18438 z"
         style="fill:none;stroke:none" />
      <path
         inkscape:connector-curvature="0"
         id="path3200"
         d="m 46.580184,289.57201 c 1.262312,-1.7614 28.887867,-29.77367 29.893289,-30.31176 0.71375,-0.38198 1.061538,-0.26221 1.994952,0.68707 l 1.130498,1.1497 -2.368775,2.19987 c -4.742094,4.40397 -30.959546,27.4595 -31.22539,27.4595 -0.150354,0 0.108587,-0.53297 0.575426,-1.18438 z"
         style="fill:none;stroke:none" />
      <path
         inkscape:connector-curvature="0"
         id="path3202"
         d="m 46.580184,289.57201 c 1.262312,-1.7614 28.887867,-29.77367 29.893289,-30.31176 0.71375,-0.38198 1.061538,-0.26221 1.994952,0.68707 l 1.130498,1.1497 -2.368775,2.19987 c -4.742094,4.40397 -30.959546,27.4595 -31.22539,27.4595 -0.150354,0 0.108587,-0.53297 0.575426,-1.18438 z"
         style="fill:none;stroke:none" />
      <path
         inkscape:connector-curvature="0"
         id="path3204"
         d="m 254.52049,275.83229 -17.16458,-15.76383 1.36479,-1.34513 1.36478,-1.34513 5.24797,5.3996 c 2.88639,2.96978 9.3052,9.75309 14.26404,15.07402 4.95883,5.32093 9.89367,10.59502 10.96631,11.72019 5.05548,5.30306 -0.33702,0.68484 -16.04331,-13.73972 z"
         style="fill:none;stroke:none" />
      <path
         inkscape:connector-curvature="0"
         id="path3206"
         d=""
         style="fill:none;stroke:none" />
      <path
         inkscape:connector-curvature="0"
         id="path3208"
         d="m 157.39436,48.818304 c 0.0518,-14.885277 0.53708,-38.050368 0.7255,-34.629933 0.0436,0.79203 0.46487,6.993914 0.93608,13.781965 0.8986,12.944827 2.15725,33.898675 2.15776,35.921992 2.8e-4,1.116637 -0.11057,1.184388 -1.93779,1.184388 l -1.93809,0 0.0565,-16.258412 z"
         style="fill:none;stroke:none" />
      <path
         inkscape:connector-curvature="0"
         id="path3990"
         d="M 144.41723,269.39426 C 111.13744,264.97436 83.87215,246.2946 70.301058,218.61642 53.421477,184.19059 62.353877,141.60749 92.573346,112.43856 107.83443,97.708007 128.10679,86.95248 151.41937,81.21773 c 20.41174,-5.021163 44.29902,-5.41408 65.78386,-1.082065 10.60126,2.137545 16.09665,4.147109 17.25389,6.309421 1.3968,2.609943 -2.1903,2.916222 -10.19336,0.870344 -14.71845,-3.762579 -23.05121,-4.798447 -38.50064,-4.786124 -13.06043,0.01042 -17.3721,0.401297 -28.49841,2.583558 -16.90083,3.314847 -33.87166,10.403151 -47.73308,19.936946 -24.11252,16.58445 -39.234356,41.21673 -42.234803,68.79718 -0.679637,6.2473 -0.281715,17.11644 0.85142,23.25633 7.105852,38.50302 40.572313,66.41758 83.375303,69.54379 9.73628,0.71111 22.30595,-0.59591 31.77813,-3.30435 19.31461,-5.52275 35.97104,-18.61679 44.02446,-34.60874 1.98043,-3.93262 4.33071,-11.13702 5.13702,-15.74676 0.8582,-4.90638 0.86432,-13.20197 0.0134,-18.08189 -3.67586,-21.07897 -20.88452,-37.46641 -43.36067,-41.29145 -4.79146,-0.81541 -13.8123,-0.95097 -18.0599,-0.27138 -13.75301,2.20039 -25.38994,10.00509 -30.53971,20.48249 -2.34166,4.76417 -3.15094,8.18712 -3.15662,13.35128 -0.007,5.98894 1.91087,11.82822 5.14694,15.67407 0.63608,0.75593 1.05716,1.47377 0.93575,1.59518 -0.37987,0.37986 -3.18622,-3.36892 -4.54508,-6.0714 -2.29222,-4.55873 -2.78663,-7.04368 -2.56246,-12.87907 0.17158,-4.46612 0.38979,-5.71758 1.52876,-8.76745 1.85358,-4.96337 4.05685,-8.3949 7.83303,-12.1997 6.77974,-6.83112 14.977,-10.88345 25.71976,-12.71463 5.46524,-0.93158 15.36791,-0.61315 21.02247,0.67601 13.721,3.12819 24.91398,9.97005 32.6656,19.96728 5.87841,7.58137 9.17237,15.17027 10.6426,24.51934 0.65254,4.14947 0.29901,14.39616 -0.64262,18.62568 -2.7611,12.40199 -9.07916,23.4681 -18.47655,32.36177 -12.54721,11.87465 -28.55785,19.09929 -47.64507,21.49933 -6.13443,0.77135 -18.50159,0.73688 -24.5655,-0.0685 l -1e-5,0 z"
         style="fill:#ffff00;fill-opacity:1;stroke:none" />
      <path
         sodipodi:nodetypes="sssss"
         inkscape:connector-curvature="0"
         id="path4271"
         d="m 65.464335,123.82234 c 0,2.25969 -1.831836,4.09152 -4.091521,4.09152 -2.259684,0 -4.091521,-1.83183 -4.091521,-4.09152 0,-2.25968 -5.914443,-51.391609 -3.654759,-51.391609 2.259685,0 11.837801,49.131929 11.837801,51.391609 z"
         style="fill:#ffff00;fill-opacity:1;stroke:#000000"
         transform="matrix(0.76932035,-0.63886321,0.63886321,0.76932035,-64.948079,67.772127)" />
      <path
         sodipodi:nodetypes="sssss"
         inkscape:connector-curvature="0"
         id="path4273"
         d="m 83.143769,260.96732 c -1.411348,1.91466 -35.117035,29.88659 -37.031684,28.47524 -1.914653,-1.41136 28.68677,-31.67155 30.098122,-33.58619 1.411356,-1.91466 4.107614,-2.32266 6.022263,-0.91131 1.914653,1.41136 2.322661,4.10761 0.911299,6.02226 z"
         style="fill:#ffff00;fill-opacity:1;stroke:#000000;stroke-width:1.05263162" />
      <path
         sodipodi:nodetypes="sssss"
         inkscape:connector-curvature="0"
         id="path4275"
         d="m 270.76078,290.12649 c -2.17346,1.23038 -34.65017,-28.39013 -35.88055,-30.56358 -1.23038,-2.17345 -0.46586,-4.9328 1.7076,-6.16318 2.17345,-1.23038 4.9328,-0.46586 6.16317,1.70759 1.23038,2.17345 30.18323,33.78879 28.00978,35.01917 z"
         style="fill:#ffff00;fill-opacity:1;stroke:#000000;stroke-width:1" />
      <path
         sodipodi:nodetypes="sssss"
         inkscape:connector-curvature="0"
         id="path4277"
         d="m 301.4904,87.341248 c 2.1894,1.43265 -37.25096,34.086252 -38.6836,36.275662 -1.43265,2.1894 -4.36889,2.80288 -6.5583,1.37024 -2.1894,-1.43265 -2.80288,-4.36889 -1.37024,-6.5583 1.43265,-2.1894 44.42273,-32.520242 46.61214,-31.087602 z"
         style="fill:#ffff00;fill-opacity:1;stroke:#000000" />
      <path
         sodipodi:nodetypes="sssss"
         inkscape:connector-curvature="0"
         id="path4279"
         d="m 163.23014,65.033646 c 0,2.378615 -1.92825,4.306864 -4.30686,4.306864 -2.37862,0 -4.30687,-1.928249 -4.30687,-4.306864 0,-2.378616 0.63619,-50.39031 3.01481,-50.39031 2.37861,0 5.59892,48.011694 5.59892,50.39031 z"
         style="fill:#ffff00;fill-opacity:1;stroke:#000000" />
    </g>
  </g>
</svg>
